<?xml version="1.0" standalone="no"?>
<!DOCTYPE svg PUBLIC "-//W3C//DTD SVG 20010904//EN"
 "http://www.w3.org/TR/2001/REC-SVG-20010904/DTD/svg10.dtd">
<svg version="1.0" xmlns="http://www.w3.org/2000/svg"
 width="200.000000pt" height="200.000000pt" viewBox="0 0 200.000000 200.000000"
 preserveAspectRatio="xMidYMid meet">
<metadata>
Created by potrace 1.14, written by Peter Selinger 2001-2017
</metadata>
<g transform="translate(0.000000,200.000000) scale(0.100000,-0.100000)"
fill="#000000" stroke="none">
<path d="M1389 1820 c-19 -16 -21 -21 -10 -29 11 -7 9 -10 -8 -16 -11 -3 -21
-11 -21 -16 0 -5 -18 -9 -40 -9 -30 0 -40 -4 -40 -16 0 -12 -7 -15 -30 -12
-36 5 -37 2 -8 -29 24 -25 17 -44 -10 -27 -19 13 -35 94 -18 95 6 0 0 5 -13
10 -40 16 -96 -15 -84 -48 3 -7 -10 -18 -31 -27 -20 -8 -39 -22 -42 -31 -3 -8
-13 -15 -21 -15 -8 0 -12 -4 -8 -9 3 -5 1 -12 -5 -16 -6 -4 -8 -11 -5 -16 4
-5 2 -9 -4 -9 -5 0 -13 -9 -16 -20 -7 -22 -35 -28 -35 -7 -1 23 -41 -38 -85
-130 -25 -50 -45 -96 -45 -101 0 -5 -6 -15 -14 -21 -8 -6 -16 -23 -19 -37 -4
-24 25 -129 58 -208 21 -49 97 -130 138 -147 18 -7 35 -18 39 -23 9 -13 12 11
9 71 -2 24 4 53 14 70 9 15 13 19 10 8 -17 -49 -17 -55 1 -61 34 -13 47 -26
32 -35 -8 -6 1 -9 25 -9 23 0 36 4 32 10 -3 6 4 10 16 10 17 0 20 5 17 24 -3
16 0 27 9 30 22 9 24 8 18 -17 -3 -12 1 -36 9 -52 16 -30 16 -29 16 40 0 64
-7 92 -37 165 -9 22 -7 27 13 40 14 8 22 21 19 28 -2 7 8 37 24 66 17 33 25
59 20 67 -4 7 -1 26 8 42 12 23 17 27 24 16 5 -9 9 -10 9 -2 0 6 23 19 50 28
50 17 51 17 85 -6 19 -13 42 -41 52 -61 10 -21 23 -38 30 -38 6 0 24 -15 40
-33 15 -18 42 -39 58 -47 38 -19 74 -58 82 -90 3 -14 10 -30 15 -37 5 -7 8
-31 7 -55 -2 -24 1 -49 5 -56 4 -7 4 -12 -1 -12 -4 0 -1 -5 7 -11 11 -8 12
-12 3 -16 -24 -9 -13 -28 24 -40 29 -9 41 -9 53 0 13 10 13 10 2 -5 -8 -10 -9
-18 -3 -22 6 -4 7 -14 4 -23 -6 -15 -7 -14 -14 3 -7 17 -8 17 -8 -3 -1 -13 4
-23 9 -23 16 0 12 -67 -4 -73 -9 -4 -12 0 -9 12 2 10 -2 24 -10 32 -7 8 -17
21 -20 29 -4 8 -5 3 -2 -12 3 -15 1 -29 -4 -32 -5 -3 -12 -18 -16 -33 -3 -15
-15 -33 -26 -41 -10 -7 -19 -24 -19 -38 0 -14 -6 -24 -14 -24 -8 0 -17 -4 -20
-9 -4 -5 3 -7 14 -4 14 4 20 0 20 -11 0 -9 -7 -16 -16 -16 -12 0 -15 -6 -10
-24 4 -16 0 -29 -14 -41 -11 -10 -20 -15 -20 -11 0 3 -20 -14 -45 -38 -32 -31
-52 -42 -65 -39 -11 3 -26 0 -33 -6 -16 -13 -68 -18 -85 -7 -7 4 -12 3 -12 -1
0 -5 -11 -10 -25 -11 -14 -1 -25 3 -25 9 0 6 -6 9 -14 6 -18 -7 -44 23 -41 46
3 14 0 15 -9 8 -7 -6 -17 -7 -21 -3 -10 8 1 -13 25 -48 20 -30 32 -61 22 -58
-18 6 -71 -26 -76 -45 -17 -60 -35 -193 -38 -282 l-3 -100 390 -3 c341 -2 390
0 398 13 4 9 12 13 17 10 5 -3 9 106 10 249 l1 254 -28 22 c-15 12 -33 40 -40
63 -15 48 -16 63 -5 53 4 -4 7 -13 7 -18 0 -6 6 -13 13 -16 10 -3 13 5 10 29
-2 25 -8 34 -20 33 -10 -1 -20 6 -23 16 -6 19 -42 33 -50 20 -3 -4 -1 -29 4
-56 5 -26 7 -55 4 -63 -14 -43 -34 -79 -58 -101 -26 -24 -61 -37 -48 -17 4 6
0 8 -9 4 -14 -5 -15 -1 -8 23 13 44 98 214 120 240 11 13 20 29 20 37 0 7 5
13 11 13 6 0 8 8 4 20 -3 10 -2 27 4 37 15 30 -12 83 -43 83 -14 0 -28 5 -31
10 -4 6 -11 8 -16 5 -5 -4 -9 3 -9 14 0 12 5 21 10 21 6 0 8 12 5 28 -6 24 -5
25 8 10 13 -16 15 -16 25 8 7 14 12 32 12 40 0 8 8 18 17 21 9 4 26 16 37 27
22 22 21 22 40 -38 5 -13 10 -16 17 -9 14 14 25 333 11 333 -6 0 -12 10 -14
23 -2 16 -11 23 -30 25 -16 2 -28 9 -28 18 0 8 -10 19 -22 25 -49 22 -78 41
-78 50 0 5 -9 9 -20 9 -11 0 -20 5 -20 10 0 6 -7 10 -15 10 -8 0 -15 4 -15 10
0 5 -10 9 -22 7 -16 -1 -22 3 -20 14 2 16 -82 109 -99 109 -12 0 -69 58 -69
70 0 5 8 7 18 3 11 -4 14 -3 7 4 -10 11 -101 33 -134 33 -11 0 -29 -9 -42 -20z
m167 -90 c27 -12 56 -29 64 -36 8 -8 28 -24 43 -35 21 -16 25 -24 17 -34 -16
-19 -43 -8 -84 35 -20 21 -47 42 -59 45 -44 12 -97 38 -97 48 0 14 60 2 116
-23z m-505 -147 c8 -8 7 -13 -2 -18 -8 -6 -10 -4 -4 5 6 10 3 12 -13 8 -14 -4
-22 -2 -22 7 0 15 25 14 41 -2z m429 -23 c0 -5 -2 -10 -4 -10 -3 0 -8 5 -11
10 -3 6 -1 10 4 10 6 0 11 -4 11 -10z m-303 -472 c31 -29 32 -53 2 -37 -12 6
-44 9 -70 7 -54 -6 -57 -2 -31 30 22 28 69 29 99 0z m-30 -60 c-3 -8 -6 -5 -6
6 -1 11 2 17 5 13 3 -3 4 -12 1 -19z m633 -202 c0 -3 -4 -8 -10 -11 -5 -3 -10
-1 -10 4 0 6 5 11 10 11 6 0 10 -2 10 -4z"/>
<path d="M1467 1263 c-20 -3 -27 -9 -23 -19 5 -13 -2 -14 -39 -9 -34 6 -48 3
-60 -9 -14 -13 -37 -20 -65 -18 -3 0 -6 -13 -7 -29 -2 -29 25 -69 47 -69 6 0
10 -7 10 -15 0 -8 17 -23 38 -33 41 -20 87 -14 126 15 20 15 20 15 -9 8 -45
-11 -50 -11 -53 0 -2 5 25 19 59 30 76 26 64 40 -24 29 -34 -4 -75 -8 -92 -8
-16 -1 -35 -4 -40 -8 -6 -4 -11 2 -11 13 0 10 3 19 6 19 4 0 15 8 26 19 11 10
43 24 71 31 36 9 53 19 57 33 3 12 9 16 17 11 8 -4 10 -3 5 4 -4 7 -8 11 -9
11 -1 -1 -15 -4 -30 -6z"/>
<path d="M1900 1053 c0 -12 5 -25 10 -28 6 -3 10 -17 10 -30 0 -18 4 -23 15
-19 9 4 15 19 15 41 0 23 -4 32 -12 27 -6 -4 -17 1 -25 11 -12 18 -13 18 -13
-2z"/>
<path d="M1389 884 c-8 -10 -22 -14 -39 -10 -17 3 -39 -3 -60 -15 -20 -13 -42
-18 -56 -15 -16 4 -24 1 -29 -13 -6 -20 3 -51 14 -51 4 0 13 -11 19 -24 8 -17
7 -27 -1 -36 -9 -9 -5 -8 16 1 29 13 37 39 12 39 -8 0 -15 5 -15 10 0 6 3 9 8
9 19 -3 33 2 28 10 -3 5 15 12 41 16 77 11 90 20 95 59 4 39 -10 48 -33 20z"/>
<path d="M1573 885 c1 -5 -4 -9 -10 -7 -19 3 -16 -15 3 -22 24 -9 31 -7 14 4
-13 9 -13 10 0 11 8 1 25 0 38 -1 13 -1 22 4 22 12 0 10 -11 14 -34 14 -19 0
-34 -5 -33 -11z"/>
<path d="M1499 770 c-8 -4 -39 -13 -69 -19 -30 -7 -65 -17 -77 -23 -12 -6 -31
-8 -42 -5 -11 3 -25 -1 -31 -8 -6 -8 -24 -17 -40 -20 -25 -5 -29 -11 -27 -36
1 -22 7 -29 22 -29 24 0 67 -28 61 -39 -3 -4 8 -6 23 -3 16 2 32 -1 35 -7 4
-6 18 -11 32 -11 32 0 101 69 82 82 -11 6 -10 8 0 8 7 0 11 4 8 8 -8 13 32 72
49 72 18 0 19 7 2 25 -8 7 -20 10 -28 5z"/>
<path d="M1602 734 c-12 -25 -20 -50 -17 -55 11 -16 32 -10 49 16 19 29 21 51
4 58 -10 4 -10 6 0 6 16 1 16 21 -1 21 -7 0 -23 -21 -35 -46z"/>
<path d="M84 654 c-4 -10 -18 -36 -31 -56 -27 -44 -31 -67 -8 -48 13 11 15 4
15 -54 0 -52 3 -66 15 -66 12 0 15 17 15 91 0 50 5 100 11 111 8 14 8 23 0 31
-7 7 -12 5 -17 -9z"/>
<path d="M121 625 c-14 -31 -18 -52 -12 -58 7 -7 14 -1 22 16 10 23 18 27 56
27 32 0 43 -4 43 -15 0 -20 16 -19 24 1 14 36 7 44 -40 44 -32 0 -51 5 -59 17
-11 15 -15 11 -34 -32z"/>
<path d="M337 663 c-4 -3 -7 -15 -7 -25 0 -10 -7 -18 -15 -18 -18 0 -20 -17
-3 -22 9 -3 8 -12 -1 -38 -10 -31 -9 -36 9 -50 l21 -16 -21 -21 c-37 -40 -23
-58 17 -22 18 18 25 20 37 10 21 -17 32 6 13 27 -10 11 -12 24 -7 37 5 11 9
37 9 58 1 31 -2 37 -19 37 -17 0 -19 5 -14 25 6 23 -4 33 -19 18z m29 -95 c-8
-40 -23 -57 -31 -36 -8 19 11 68 26 68 8 0 9 -11 5 -32z"/>
<path d="M588 658 c-36 -12 -36 -28 -1 -28 l27 0 -30 -31 c-27 -28 -28 -31
-11 -41 17 -9 17 -11 2 -22 -30 -21 -8 -46 41 -46 37 0 44 -3 44 -20 0 -11 -7
-20 -15 -20 -8 0 -15 -5 -15 -11 0 -6 12 -9 28 -7 21 2 28 9 30 31 3 24 7 27
43 27 21 0 39 5 39 10 0 6 -39 10 -97 10 -64 1 -93 4 -82 10 18 11 147 15 170
5 10 -3 20 -2 24 4 3 6 3 11 -2 11 -4 0 -14 4 -21 9 -12 7 -12 12 -1 29 16 26
14 28 -38 35 -47 6 -54 -4 -27 -41 15 -22 14 -22 -21 -22 -35 0 -36 0 -21 22
22 31 20 38 -11 38 -24 1 -26 2 -10 11 10 6 34 9 55 8 64 -4 92 0 92 15 0 9
-7 12 -20 9 -11 -3 -27 1 -36 8 -12 10 -17 10 -23 1 -8 -13 -61 -13 -61 0 0
10 -18 9 -52 -4z m152 -72 c0 -11 -19 -15 -25 -6 -3 5 1 10 9 10 9 0 16 -2 16
-4z"/>
<path d="M410 645 c0 -11 11 -15 42 -15 39 0 40 -1 25 -18 -10 -10 -17 -26
-17 -35 0 -12 -9 -17 -30 -17 -38 0 -40 -18 -2 -22 23 -3 27 -8 30 -41 3 -32
0 -39 -17 -44 -31 -8 -25 -25 7 -21 25 3 27 7 32 53 4 42 8 50 28 53 30 5 28
22 -3 22 -30 0 -33 20 -5 45 11 10 20 26 20 37 0 15 -8 18 -55 18 -42 0 -55
-3 -55 -15z"/>
<path d="M890 545 c0 -70 4 -115 10 -115 6 0 10 11 10 25 0 14 3 24 8 24 25
-4 29 6 28 91 l0 90 -28 0 -28 0 0 -115z m36 20 c1 -41 -3 -75 -7 -75 -5 0 -9
34 -9 75 0 41 3 75 8 75 4 0 7 -34 8 -75z"/>
<path d="M960 650 c0 -5 14 -10 30 -10 l30 0 0 -95 c0 -78 -3 -95 -15 -95 -8
0 -15 -4 -15 -10 0 -15 40 -12 45 3 2 6 5 58 7 115 l4 102 -43 0 c-24 0 -43
-4 -43 -10z"/>
<path d="M820 550 c0 -60 4 -100 10 -100 6 0 10 8 10 17 0 13 3 14 12 5 24
-24 28 -11 28 83 l0 95 -30 0 -30 0 0 -100z m40 16 c0 -36 -4 -68 -10 -71 -6
-4 -10 20 -10 64 0 41 4 71 10 71 6 0 10 -28 10 -64z"/>
<path d="M960 550 c0 -57 1 -60 25 -60 24 0 25 3 25 60 0 57 -1 60 -25 60 -24
0 -25 -3 -25 -60z m27 -22 c-2 -13 -4 -3 -4 22 0 25 2 35 4 23 2 -13 2 -33 0
-45z"/>
<path d="M180 531 c0 -64 -2 -73 -20 -78 -30 -8 -24 -25 8 -21 26 3 27 5 30
77 2 42 -2 79 -8 85 -7 7 -10 -12 -10 -63z"/>
<path d="M117 518 c-11 -27 -14 -45 -7 -52 10 -10 40 49 40 79 0 28 -15 15
-33 -27z"/>
<path d="M224 538 c4 -13 9 -35 12 -50 6 -27 15 -34 26 -22 9 8 -22 94 -34 94
-6 0 -8 -10 -4 -22z"/>
<path d="M579 462 c-28 -23 -11 -37 19 -16 22 15 29 34 13 34 -5 0 -19 -8 -32
-18z"/>
<path d="M734 455 c17 -13 34 -21 40 -18 12 8 -31 43 -53 43 -11 -1 -8 -8 13
-25z"/>
<path d="M1005 370 c-3 -5 1 -10 10 -10 9 0 13 5 10 10 -3 6 -8 10 -10 10 -2
0 -7 -4 -10 -10z"/>
<path d="M130 336 c-6 -8 -10 -25 -8 -38 2 -18 9 -23 33 -23 24 0 31 5 33 23
4 25 -13 52 -33 52 -7 0 -18 -7 -25 -14z m48 -29 c4 -20 -25 -34 -40 -19 -15
15 -1 44 19 40 10 -2 19 -11 21 -21z"/>
<path d="M258 318 c-4 -42 -30 -44 -39 -3 -6 29 -7 29 -8 -7 -1 -37 0 -38 32
-38 32 0 34 2 35 35 2 44 -16 56 -20 13z"/>
<path d="M349 334 c-11 -13 -9 -15 17 -9 l29 6 -27 -16 c-46 -26 -33 -57 19
-47 18 3 23 11 23 37 0 43 -35 60 -61 29z m41 -44 c0 -5 -7 -10 -15 -10 -8 0
-15 5 -15 10 0 6 7 10 15 10 8 0 15 -4 15 -10z"/>
<path d="M448 342 c-13 -2 -18 -13 -18 -38 0 -19 4 -34 9 -34 5 0 7 8 4 19 -2
10 3 26 12 35 20 19 18 24 -7 18z"/>
<path d="M495 337 c-27 -20 -13 -67 20 -67 13 0 27 5 30 10 4 7 -2 9 -19 4
-16 -4 -26 -2 -26 5 0 6 11 11 25 11 29 0 36 34 9 44 -20 8 -17 8 -39 -7z m40
-17 c-3 -5 -13 -10 -21 -10 -8 0 -14 5 -14 10 0 6 9 10 21 10 11 0 17 -4 14
-10z"/>
<path d="M624 335 c-7 -18 3 -35 22 -35 8 0 14 -5 14 -11 0 -6 -9 -9 -20 -6
-11 3 -20 1 -20 -4 0 -5 14 -9 30 -9 38 0 40 24 3 45 l-28 16 28 -6 c29 -6 38
9 11 19 -24 9 -34 7 -40 -9z"/>
<path d="M706 334 c-29 -29 -15 -64 25 -64 23 0 30 6 35 27 5 19 2 30 -11 40
-24 17 -30 16 -49 -3z m44 -30 c0 -33 -33 -30 -38 4 -3 17 2 22 17 22 16 0 21
-6 21 -26z"/>
<path d="M845 337 c-13 -10 -16 -21 -11 -40 5 -22 12 -27 36 -27 22 0 30 5 30
17 0 13 -3 14 -12 5 -20 -20 -38 -14 -38 14 0 23 3 26 25 22 28 -6 34 6 9 16
-20 8 -17 8 -39 -7z"/>
<path d="M933 343 c-23 -9 -13 -20 15 -17 l27 4 -27 -11 c-40 -15 -38 -49 3
-49 29 0 30 2 27 37 -3 37 -17 48 -45 36z m32 -53 c-3 -5 -13 -10 -21 -10 -8
0 -14 5 -14 10 0 6 9 10 21 10 11 0 17 -4 14 -10z"/>
<path d="M46 319 c5 -13 8 -36 9 -51 0 -41 10 -34 33 22 12 28 16 50 11 50 -6
0 -13 -9 -16 -20 -6 -23 -23 -27 -23 -6 0 8 -5 18 -11 22 -8 4 -9 -1 -3 -17z"/>
<path d="M1013 305 c0 -22 2 -30 4 -17 2 12 2 30 0 40 -3 9 -5 -1 -4 -23z"/>
</g>
</svg>
